<svg xmlns:svg="http://www.w3.org/2000/svg" xmlns="http://www.w3.org/2000/svg" version="1.0" id="svg2524" xml:space="preserve" width="" height="" viewBox="0 0 0.305983 0.305983">
 <defs id="defs2526">
  <style type="text/css" id="style2528"/>
  <linearGradient x1="4.5050302" y1="2.12674" x2="3.4431801" y2="-3.8952799" id="id0" gradientUnits="userSpaceOnUse">
   <stop style="stop-color:#1f1a17;stop-opacity:1" offset="0" id="stop2531"/>
   <stop style="stop-color:#1f1a17;stop-opacity:1" offset="0.0784314" id="stop2533"/>
   <stop style="stop-color:#858483;stop-opacity:1" offset="0.45098001" id="stop2535"/>
   <stop style="stop-color:#ffffff;stop-opacity:1" offset="0.63137299" id="stop2537"/>
   <stop style="stop-color:#838281;stop-opacity:1" offset="0.76862699" id="stop2539"/>
   <stop style="stop-color:#1f1a17;stop-opacity:1" offset="1" id="stop2541"/>
  </linearGradient>
  <linearGradient x1="5.1951499" y1="2.21158" x2="1.94511" y2="-3.41764" id="id1" gradientUnits="userSpaceOnUse">
   <stop style="stop-color:#efeeee;stop-opacity:1" offset="0" id="stop2544"/>
   <stop style="stop-color:#efeeee;stop-opacity:1" offset="0.2" id="stop2546"/>
   <stop style="stop-color:#efeeee;stop-opacity:1" offset="0.231373" id="stop2548"/>
   <stop style="stop-color:#1f1a17;stop-opacity:1" offset="1" id="stop2550"/>
  </linearGradient>
 </defs>






 <g id="Layer_x0020_1">

  <path d="M 0.137992,0.164989 C 0.1594924,0.16398974 0.1874909,0.1539914 0.1874909,0.1284939 C 0.1874909,0.1004935 0.1624902,0.0884966 0.1384926,0.0884966 L 0.0419977,0.0884966 L 0.0419977,0.0994942 L 0.0624969,0.0994942 L 0.0624969,0.2374882 L 0.0424983,0.2374882 L 0.0424983,0.2484858 L 0.1224929,0.2484858 L 0.1224929,0.2374882 L 0.1024943,0.2374882 L 0.1024943,0.1699911 L 0.1114934,0.1699911 C 0.1234922,0.1699911 0.1324932,0.17949079 0.135491,0.1939906 C 0.14149233,0.214486 0.1479904,0.2379868 0.1479904,0.2384874 C 0.1479904,0.2384874 0.15099203,0.2484877 0.1629908,0.2484877 L 0.206989,0.24848577 L 0.206989,0.23748817 L 0.1899901,0.23748817 L 0.18048847,0.19898877 C 0.17498966,0.17699157 0.16399007,0.16549147 0.13799207,0.16549147 C 0.13749341,0.16498894 0.13749341,0.16449221 0.13799207,0.16498894 L 0.137992,0.164989 z M 0.1134938,0.1589896 L 0.1024943,0.1589896 L 0.1024943,0.0999949 L 0.1159949,0.0999949 C 0.1384927,0.099494306 0.141991,0.10699549 0.141991,0.1174944 L 0.141991,0.1394935 C 0.141991,0.154492 0.13549101,0.1589916 0.1134938,0.1589896 z " style="fill:#dd3e31" id="path2572"/>
  <path d="M 0.15299,0 C 0.0684959,0 0,0.0684983 0,0.152992 C 0,0.2369875 0.0684964,0.305484 0.15299,0.305982 C 0.2374861,0.30548141 0.305982,0.236987 0.305982,0.152992 C 0.305982,0.0684959 0.2374856,2e-006 0.15299,0 z M 0.15299,0.291986 C 0.0764957,0.291986 0.014499,0.229489 0.014499,0.152993 C 0.014499,0.0764987 0.0764954,0.014502 0.15299,0.014502 C 0.2299868,0.014502 0.291983,0.0764984 0.291983,0.152993 C 0.291983,0.2294892 0.2299866,0.291986 0.15299,0.291986 L 0.15299,0.291986 z " style="fill:#dd3e31" id="path2574"/>

 </g>
</svg>